<?xml version="1.0" encoding="UTF-8" standalone="no"?>
<svg
   xmlns:dc="http://purl.org/dc/elements/1.1/"
   xmlns:cc="http://creativecommons.org/ns#"
   xmlns:rdf="http://www.w3.org/1999/02/22-rdf-syntax-ns#"
   xmlns:svg="http://www.w3.org/2000/svg"
   xmlns="http://www.w3.org/2000/svg"
   viewBox="0 0 653.28003 297.95999"
   height="297.95999"
   width="653.28003"
   xml:space="preserve"
   id="svg2"
   version="1.1"><metadata
     id="metadata8"><rdf:RDF><cc:Work
         rdf:about=""><dc:format>image/svg+xml</dc:format><dc:type
           rdf:resource="http://purl.org/dc/dcmitype/StillImage" /></cc:Work></rdf:RDF></metadata><defs
     id="defs6" /><g
     transform="matrix(1.3333333,0,0,-1.3333333,0,297.96)"
     id="g10"><g
       transform="scale(0.1)"
       id="g12"><path
         id="path14"
         style="fill:#70c72d;fill-opacity:1;fill-rule:nonzero;stroke:none"
         d="m 354.395,884.98 c 10.863,-2.07 676.675,-1.691 684.055,0.309 -0.14,2.371 -0.08,4.871 -0.43,7.313 -5.61,38.168 -14.62,75.429 -29.86,111.008 -14.297,33.38 -33.535,63.57 -59.601,88.94 -31.09,30.26 -68.082,50.7 -109.547,63.07 -50.391,15.05 -101.961,19.05 -154.25,16 -54.883,-3.2 -106.797,-17.14 -155.352,-43.1 -33.121,-17.71 -62.414,-40.47 -87.625,-68.24 -28.879,-31.81 -50.722,-68.1 -66.703,-107.979 -8.68,-21.653 -15.699,-43.781 -20.687,-67.321 z M 896.121,628.512 c -149.894,0 -299.797,0 -449.695,0 -12.676,0 -25.156,-1.512 -37.203,-5.582 -28.121,-9.52 -40.301,-31.782 -39.09,-59 0.687,-15.52 4.59,-30.481 10.773,-44.801 18.59,-43 43.727,-81.59 77.172,-114.578 35.387,-34.91 76.762,-60.211 123.617,-76.531 36.543,-12.731 74.149,-19.641 112.903,-20.981 62.265,-2.16 123.281,4.551 182.453,24.633 46.347,15.726 87.762,39.738 122.066,75.148 19.003,19.621 34.483,41.758 46.893,66.078 1.29,2.532 2.44,5.141 3.86,7.59 9.48,16.274 24.55,25.5 46.48,15.41 14.04,-6.457 28.06,-12.918 42.11,-19.347 59.61,-27.25 119.25,-54.442 178.8,-81.84 5.66,-2.609 11.17,-5.992 15.95,-9.973 8.39,-6.988 11.85,-16.308 9.18,-27.097 -1.5,-6.071 -3.49,-12.161 -6.29,-17.731 -24.46,-48.711 -54.56,-93.59 -91.19,-134.07 -44.46,-49.121 -95.85,-89.199 -154.4,-120.2502 C 1023.55,50.0781 952.234,28.0508 877.734,15.4883 839.801,9.08984 801.676,4.60156 763.211,3.69922 732.977,2.98828 702.672,1.48047 672.504,2.80859 577.098,7.01953 485.398,27.6602 398.367,67.7617 336.891,96.0781 280.906,132.73 230.855,178.23 172.91,230.91 125.996,292.18 89.4883,361.488 50.4844,435.559 25.3125,514.09 11.8945,596.57 c -4.66012,28.629 -7.69137,57.379 -9.71872,86.301 -2.664061,38.141 -2.855468,76.34 -0.72265,114.379 4.44531,79.109 20.24217,156.02 48.82417,230.15 18.1094,46.97 40.8985,91.51 68.5467,133.51 19.965,30.33 42.531,58.65 67.16,85.39 35.871,38.93 75.879,72.97 119.883,102.24 49.59,32.98 102.672,59 159.149,78.13 55.785,18.9 112.929,30.88 171.582,36.24 36.789,3.36 73.613,4.5 110.449,2.71 89.484,-4.35 176.23,-21.37 258.543,-57.96 57.79,-25.68 110.39,-59.32 157.28,-101.87 58.17,-52.78 103.73,-114.91 138.65,-185.11 31.37,-63.07 52.64,-129.469 66.41,-198.41 7.41,-37.09 12.95,-74.45 15.4,-112.2 1.57,-24.191 2.74,-48.398 3.54,-72.629 0.71,-21.101 0.69,-42.242 0.86,-63.371 0.04,-4.699 -0.27,-9.449 -0.8,-14.14 -1.87,-16.52 -13.26,-28.352 -29.8,-30.828 -4.02,-0.602 -8.17,-0.571 -12.26,-0.571 -149.58,-0.019 -299.16,-0.019 -448.749,-0.019" /><path
         id="path16"
         style="fill:#70c72d;fill-opacity:1;fill-rule:nonzero;stroke:none"
         d="m 2384.8,679.738 c -4.39,-0.789 -7.18,-1.199 -9.93,-1.808 -109.75,-24.559 -219.48,-49.149 -329.23,-73.7 -41.81,-9.359 -83.72,-18.339 -124.01,-33.32 -29.11,-10.832 -56.71,-24.23 -80.47,-44.808 -42.08,-36.43 -51.08,-93.141 -29.26,-141.172 14.56,-32.051 40.35,-52.719 71.15,-67.649 36.9,-17.89 76.57,-24.883 117.1,-26.679 27.68,-1.243 55.39,-0.102 83.02,3.199 59.39,7.109 116.11,22.988 169.36,50.41 34.17,17.598 65.26,39.469 90.34,69.008 27.48,32.371 42.8,69.133 42.1,112.39 -0.75,47.621 -0.17,95.262 -0.17,142.903 0,3.418 0,6.84 0,11.226 z m 32.11,-491.558 c -1.97,-2.489 -3.41,-4.071 -4.59,-5.828 -24.82,-36.883 -56.55,-66.704 -93.33,-91.3637 -58.78,-39.4492 -123.96,-62.9297 -192.81,-77.0977 -47.05,-9.69138 -94.57,-14.742163 -142.67,-13.761694 -16.4,0.332032 -32.83,-0.207031 -49.2,0.550782 -45.75,2.140622 -90.84,8.960942 -135.16,20.628912 -60.57,15.9531 -117.31,40.3125 -168.52,76.8516 -52.3,37.3518 -93.66,84.1798 -121.9,142.0308 -24.52,50.231 -36.7,103.59 -39.36,159.45 -1.48,31.308 -0.18,62.328 4.6,93.199 9.28,60.012 32.89,113.351 74.14,158.601 29.05,31.868 63.47,56.489 100.94,77.168 46.3,25.551 95.52,44.102 145.81,59.981 80.94,25.558 163.71,43.851 246.55,61.851 56.95,12.36 114.05,24.079 170.96,36.668 29.85,6.602 59.5,14.153 88.13,25.161 15.07,5.8 29.28,13.179 42.27,22.859 24.2,18.019 35.96,42.359 36.63,72.271 0.94,42.33 -17.67,75.16 -49.61,101.41 -30.42,25.01 -66,39.08 -103.81,47.98 -40.46,9.53 -81.57,11.57 -123.02,9.89 -31.53,-1.27 -62.81,-4.28 -93.64,-11.12 -47.66,-10.58 -90.68,-30.59 -126.85,-63.92 -23.61,-21.77 -42.68,-47.19 -58.29,-75.19 -5.83,-10.44 -10.94,-21.29 -16.54,-31.86 -2.66,-5 -5.41,-10 -8.63,-14.641 -7.43,-10.73 -17.97,-15.109 -30.46,-11.711 -9.65,2.633 -18.98,6.692 -28.14,10.801 -66.95,30.121 -133.83,60.421 -200.73,90.641 -3.45,1.56 -6.86,3.29 -10.46,4.36 -20.55,6.11 -28.99,24.83 -23.3,44 3.92,13.22 9.39,26.1 15.27,38.61 20.54,43.67 47.39,83.1 80.09,118.68 44.05,47.92 95.6,85.69 153.25,115.51 72.99,37.76 150.69,60.33 231.72,72.31 40.86,6.05 81.91,9.76 123.25,9.62 26.74,-0.1 53.54,0.62 80.21,-0.83 85.45,-4.62 168.95,-19.03 248.4,-52.4 50.44,-21.18 96.54,-49.3 136.84,-86.4 53.46,-49.25 91.32,-108.88 116.02,-177.05 16.08,-44.35 26.02,-90.13 31.4,-136.95 4.07,-35.39 5.53,-70.902 5.5,-106.519 -0.14,-157.781 -0.79,-315.562 0.25,-473.32 0.51,-76.09 8.66,-151.539 31.58,-224.672 13.26,-42.309 31.61,-82.301 54.56,-120.2384 5.01,-8.289 9.74,-17.0703 12.61,-26.25 3.81,-12.1718 -1.94,-22.5195 -13.68,-27.6718 -3.69,-1.6172 -7.78,-2.629 -11.79,-3.1993 -4.66,-0.6679 -9.42,-0.75 -14.15,-0.75 -90.24,-0.039 -180.49,-0.039 -270.73,0 -4.42,0 -8.85,0.1211 -13.21,0.6719 -16.79,2.0977 -29.17,10.1875 -37.13,25.6602 -16.82,32.6797 -29.09,67.0274 -39.42,102.1604 -2.58,8.758 -4.84,17.629 -7.32,26.418 -0.56,2 -1.45,3.898 -2.53,6.75" /><path
         id="path18"
         style="fill:#70c72d;fill-opacity:1;fill-rule:nonzero;stroke:none"
         d="m 4275.12,1467.66 c 67.72,-1.6 134.69,-7.87 200.48,-24.16 80.55,-19.95 154.9,-53.11 220.53,-104.52 69.46,-54.42 120.48,-123.08 156.22,-203.42 3.45,-7.76 7.07,-15.52 9.57,-23.61 4.79,-15.49 0.36,-27.33 -13.67,-35.44 -7.85,-4.53 -16.5,-7.8 -25.01,-11.03 -69.25,-26.27 -138.53,-52.46 -207.87,-78.46 -5.8,-2.168 -12.14,-3.18 -18.33,-3.918 -13.71,-1.641 -22.89,5.328 -29.04,16.82 -4.46,8.328 -8.38,16.948 -12.68,25.368 -13.72,26.86 -30.84,51.37 -52,72.85 -37.32,37.91 -82.83,61.16 -134.22,73.5 -29.82,7.16 -60.09,10.36 -90.73,11.57 -37.66,1.48 -74.92,-0.99 -111.73,-8.9 -32.69,-7.02 -63.65,-18.34 -89.93,-39.87 -21.06,-17.25 -34.64,-38.88 -37.98,-66.39 -3.19,-26.34 3.55,-49.14 22.43,-68.331 18.56,-18.879 41.44,-30.641 65.27,-40.899 38.88,-16.75 79.29,-29.039 120.09,-39.941 60.58,-16.18 121.36,-31.66 182.06,-47.391 66.86,-17.316 133.25,-36.168 197.45,-61.957 49.91,-20.051 97.79,-43.902 140.95,-76.41 71.44,-53.832 114.07,-124.742 127.4,-213.402 5.33,-35.438 5.95,-71.028 4.52,-106.571 -2.27,-56.429 -16.13,-110.16 -42.87,-160.238 -27.82,-52.101 -66.54,-94.66 -113.87,-129.648 -54.95,-40.6526 -116.41,-67.6409 -181.75,-86.4339 -42.17,-12.1289 -85.18,-20.1289 -128.75,-25.2578 -33.48,-3.92967 -67.08,-5.64842 -100.8,-6.46092 -39.73,-0.96875 -79.35,0.40234 -118.91,3.55078 -61.72,4.91794 -122.44,15.53904 -181.45,34.75004 -72.89,23.7304 -138.74,59.9488 -195.79,111.4688 -35.05,31.66 -64.99,67.762 -90.9,107.18 -25.35,38.582 -45.79,79.722 -64.3,121.972 -12.66,28.879 1.88,49.688 23.3,60.297 21.75,10.774 43.81,20.891 65.76,31.25 29.93,14.113 59.9,28.16 89.84,42.25 15.69,7.383 31.36,14.793 47.01,22.242 6.41,3.051 13.08,4.289 20.18,4.02 8.87,-0.328 15.85,-4.09 20.74,-11.281 2.63,-3.86 4.75,-8.168 6.51,-12.52 15.81,-39.168 36.4,-75.488 63.78,-107.789 38.15,-45.039 85.37,-77.07 140.47,-97.73 36.83,-13.809 74.97,-21.801 114.12,-24.969 15.67,-1.27 31.4,-3.071 47.07,-2.789 61.96,1.129 123.47,5.648 181.14,31.519 23.29,10.449 44.37,24.289 60.13,44.731 22.76,29.547 30.3,62.66 19.87,98.867 -5.72,19.851 -19.26,34.441 -35.34,46.73 -19.45,14.86 -41.21,25.52 -63.8,34.653 -39.25,15.847 -79.83,27.527 -120.65,38.398 -71.57,19.059 -143.39,37.18 -214.72,57.051 -64.72,18.039 -128.22,39.918 -189.46,67.801 -47.52,21.617 -92.7,47.129 -132.78,81.027 -56.8,48.063 -92.75,108.109 -105.59,181.68 -5.28,30.281 -6.28,60.831 -5.02,91.411 1.41,34.11 7.17,67.59 17.49,100.23 16.29,51.61 42.59,97.45 78.93,137.53 54.51,60.12 122.28,99.47 198.11,126.11 54.68,19.22 111.02,31.05 168.69,36.21 33.21,2.97 66.55,4.52 99.83,6.7" /><path
         id="path20"
         style="fill:#70c72d;fill-opacity:1;fill-rule:nonzero;stroke:none"
         d="m 3236.91,1425.09 c 4.8,0 8.81,0 12.81,0 115.18,0 230.35,0.01 345.53,-0.04 5.03,0 10.15,-0.03 15.07,-0.97 14.83,-2.83 25.46,-14.4 27.67,-29.82 0.63,-4.34 0.67,-8.8 0.68,-13.21 0.04,-69.1 0.03,-138.21 0.02,-207.31 0,-32.13 -12.76,-45 -44.62,-45 -88.67,-0.02 -177.34,0.2 -266.01,-0.14 -25.52,-0.09 -48.18,-8.55 -66.32,-27.33 -15.85,-16.43 -23.2,-36.41 -24.81,-58.82 -0.11,-1.57 -0.02,-3.15 -0.02,-4.74 0,-184.269 -0.15,-368.562 0.15,-552.839 0.04,-30.91 6.67,-60.672 21.71,-88.109 19.82,-36.153 50.76,-56.801 90.66,-64.883 31.15,-6.301 62.07,-3.469 92.86,2.699 33.82,6.774 66.3,17.801 98,31.281 8.16,3.481 16.55,5.422 25.61,4.551 8.97,-0.859 15.34,-5.539 20.17,-12.519 3.02,-4.36 5.28,-9.289 7.67,-14.063 33.18,-66.269 66.3,-132.558 99.5,-198.816 3.29,-6.571 5.94,-13.223 5.41,-20.742 -0.95,-13.309 -8.13,-22.231 -19.99,-27.5083 -55.09,-24.5 -111.3,-45.8906 -170.09,-59.8125 -32.82,-7.7695 -66,-13.8086 -99.73,-15.7578 -24.82,-1.4297 -49.73,-3.0898 -74.57,-2.5898 -67.83,1.3867 -134.23,11.457 -197.7,36.7968 -40.78,16.2813 -77.97,38.5235 -110.77,67.7226 -32.36,28.801 -58.15,62.777 -77.98,101.301 -28.85,56.066 -43.56,116.039 -48.5,178.488 -2.06,26.039 -2.86,52.231 -2.87,78.34 -0.18,413.691 -0.13,827.38 -0.07,1241.06 0,5.32 0.26,10.74 1.3,15.94 3.24,16.24 13.62,25.94 30.06,28.36 4.34,0.64 8.81,0.74 13.21,0.74 83.94,0.04 167.87,0.07 251.81,-0.05 5.93,-0.01 12.05,-0.49 17.74,-2 14.59,-3.85 22.92,-13.87 25.29,-28.63 0.88,-5.57 1.07,-11.3 1.08,-16.95 0.06,-94.04 0.04,-188.08 0.04,-282.11 0,-3.73 0,-7.47 0,-12.52" /><path
         id="path22"
         style="fill:#231f20;fill-opacity:1;fill-rule:nonzero;stroke:none"
         d="m 914.324,2021.54 c 3.153,-0.2 5.321,-0.46 7.489,-0.46 52.328,-0.02 104.657,-0.21 156.977,0.14 10.62,0.07 21.38,1.44 31.81,3.53 20.83,4.18 34.03,16.77 38.41,37.95 3.29,15.89 3.22,31.75 0.05,47.67 -3.81,19.17 -14.97,31.88 -33.67,36.88 -9.92,2.66 -20.42,4.26 -30.67,4.34 -53.59,0.42 -107.181,0.2 -160.771,0.18 -3.054,-0.01 -6.113,-0.3 -9.625,-0.48 0,-43.4 0,-86.11 0,-129.75 z m -0.496,-210.39 c 3.367,-0.26 5.516,-0.58 7.664,-0.58 59.324,-0.02 118.648,-0.14 177.958,0.07 14.16,0.05 28.29,1.17 41.92,5.82 17.32,5.91 27.86,17.62 31.87,35.46 3.57,15.87 3.7,31.81 1.32,47.79 -3.29,22.16 -15.35,37.08 -37.37,42.58 -9.4,2.34 -19.21,4.11 -28.85,4.2 -46.38,0.43 -92.77,0.53 -139.141,-0.06 -10.519,-0.13 -21.261,-2.54 -31.418,-5.53 -12.426,-3.67 -20.011,-12.93 -22.172,-25.85 -1.132,-6.79 -1.621,-13.76 -1.703,-20.66 -0.23,-18.29 -0.078,-36.6 -0.078,-54.9 0,-9.11 0,-18.22 0,-28.34 z m 292.562,182.74 c 17.16,-5.25 31.31,-12.42 43.2,-23.64 15.62,-14.73 25.32,-33.02 30.59,-53.46 8.64,-33.57 9.14,-67.31 -1.5,-100.62 -10.15,-31.79 -31.07,-54.36 -61.02,-68.59 -24.54,-11.65 -50.64,-17.77 -77.63,-18.39 -45.69,-1.05 -91.41,-1.14 -137.12,-1.31 -51.097,-0.2 -102.207,-0.09 -153.312,0.01 -5.95,0.01 -11.926,0.63 -17.852,1.29 -12.797,1.43 -20.676,8.7 -23.496,21.13 -0.961,4.25 -1.137,8.75 -1.137,13.13 -0.054,144.8 -0.047,289.6 -0.039,434.4 0,2.83 -0.097,5.7 0.266,8.5 1.613,12.41 8.09,21.26 20.305,24.62 7.203,1.98 14.832,3.4 22.265,3.42 82.653,0.23 165.31,0.56 247.96,-0.08 29.93,-0.23 59.65,-4.04 88.08,-14.64 47.5,-17.71 70.33,-52.93 72.6,-102.5 0.76,-16.69 0.28,-33.37 -3.34,-49.86 -6.39,-29.15 -19.91,-53.57 -45.15,-70.59 -0.77,-0.52 -1.47,-1.13 -3.67,-2.82" /><path
         id="path24"
         style="fill:#231f20;fill-opacity:1;fill-rule:nonzero;stroke:none"
         d="m 2202.66,1999.86 c 3.58,-0.23 6.34,-0.57 9.1,-0.57 53.91,-0.03 107.82,-0.33 161.73,0.18 14.05,0.14 28.35,1.66 42.08,4.63 20.71,4.46 33.18,18.26 37.59,39.09 3.48,16.49 3.37,33.18 2.06,49.83 -0.59,7.47 -1.92,15.04 -4.12,22.19 -4.54,14.73 -14.36,24.85 -28.97,30.21 -11.96,4.38 -24.39,6.28 -37.03,6.3 -58.32,0.14 -116.64,0.07 -174.97,0.03 -2.41,0 -4.81,-0.46 -7.47,-0.73 0,-50.44 0,-100.2 0,-151.16 z m -0.33,-271.39 c -3.71,-0.27 -6.15,-0.61 -8.6,-0.61 -27.13,-0.04 -54.27,-0.04 -81.4,0 -2.5,0.01 -5.07,0.1 -7.48,0.69 -5.48,1.31 -8.69,5.04 -9.46,10.55 -0.42,3.1 -0.21,6.29 -0.21,9.45 -0.01,149.23 -0.01,298.46 0,447.69 0,2.84 -0.16,5.69 0.08,8.51 1.17,13.73 8.44,23.02 21.81,26.54 6.93,1.82 14.24,3.08 21.37,3.1 82.03,0.21 164.06,0.57 246.09,-0.09 30.89,-0.25 61.56,-4.22 91.05,-14.53 43.09,-15.04 71.57,-43.62 82.13,-88.68 8.93,-38.13 8.36,-76.21 -1.86,-114.02 -11.68,-43.22 -39.73,-70.54 -82.14,-83.68 -2.97,-0.92 -5.94,-1.85 -9.78,-3.04 1.13,-2.56 1.87,-4.82 3.05,-6.83 26.79,-45.3 53.63,-90.59 80.46,-135.88 8.51,-14.36 17.03,-28.74 25.53,-43.11 0.49,-0.82 0.93,-1.65 1.36,-2.49 5.23,-10.05 2.96,-14.17 -8.01,-14.19 -30.6,-0.06 -61.21,0.1 -91.8,-0.1 -7.76,-0.05 -12.73,2.66 -16.61,9.75 -31.77,58.05 -63.98,115.85 -95.75,173.89 -3.16,5.78 -6.57,7.98 -13.16,7.91 -29.96,-0.35 -59.94,-0.09 -89.91,-0.19 -11.71,-0.04 -23.23,-1.34 -34.25,-5.85 -12.98,-5.3 -19.93,-15.01 -21.6,-28.61 -0.7,-5.61 -0.86,-11.31 -0.87,-16.97 -0.07,-42.6 -0.04,-85.19 -0.04,-127.78 0,-3.69 0,-7.36 0,-11.43" /><path
         id="path26"
         style="fill:#231f20;fill-opacity:1;fill-rule:nonzero;stroke:none"
         d="m 1914.92,2233.89 c -10.03,-25.04 -19.43,-48.39 -28.72,-71.78 -2.93,-7.38 -8.06,-10.52 -16.07,-10.41 -21.14,0.27 -42.28,0.09 -63.43,0.09 -70.04,0 -140.09,0 -210.13,0 -3.72,0 -7.43,0 -11.73,0 0,-42.46 0,-83.97 0,-126.71 3.57,-0.14 7.19,-0.41 10.82,-0.41 73.51,-0.03 147.03,0 220.55,-0.07 4.93,-0.01 9.86,-0.71 15.76,-1.16 -1.11,-3.75 -1.64,-6.42 -2.67,-8.9 -8.07,-19.51 -16.45,-38.89 -24.28,-58.49 -3.52,-8.83 -9.21,-12.5 -18.76,-12.45 -48.27,0.26 -96.55,0.31 -144.83,-0.04 -9.35,-0.06 -18.96,-1.16 -27.98,-3.55 -22.76,-6.03 -28.35,-18.96 -28.89,-35.91 -0.96,-29.94 -0.24,-59.94 -0.18,-89.92 0,-0.86 0.53,-1.73 1.08,-3.46 108.93,0 217.97,0 328.2,0 -0.73,-3.41 -0.91,-5.83 -1.76,-7.98 -8.32,-21.11 -16.9,-42.12 -25.09,-63.28 -3.31,-8.58 -9.01,-11.76 -18.13,-11.75 -118.64,0.18 -237.27,-0.07 -355.91,0.26 -27.68,0.08 -33.85,9.88 -36.41,35.44 -0.22,2.19 -0.04,4.42 -0.04,6.63 0,139.46 -0.02,278.92 0.07,418.38 0,6.58 0.51,13.22 1.43,19.73 1.38,9.68 6.31,17.57 15.68,20.85 7.89,2.78 16.41,5.27 24.66,5.3 129.05,0.32 258.1,0.23 387.15,0.2 2.72,0 5.44,-0.33 9.61,-0.61" /><path
         id="path28"
         style="fill:#231f20;fill-opacity:1;fill-rule:nonzero;stroke:none"
         d="m 217.016,2233.27 c 0,-3.54 0,-7.25 0,-10.95 0,-98.75 -0.137,-197.51 0.121,-296.27 0.051,-17.97 2.828,-35.71 8.496,-52.95 10.722,-32.61 33.14,-52.85 65.597,-62.42 26.004,-7.67 52.762,-8.98 79.61,-7.58 12.836,0.67 25.758,2.25 38.355,4.81 46.84,9.55 74.188,37.73 81.938,84.92 2.543,15.46 3.91,31.29 3.972,46.96 0.364,91.5 0.176,182.99 0.176,274.5 0,2.2 -0.062,4.42 0.016,6.62 0.312,9.15 4.269,13.21 13.242,13.6 1.574,0.06 3.156,0.01 4.731,0.01 26.824,0 53.64,0 80.46,0 3.387,0 6.774,0 10.778,0 0.199,-4.07 0.48,-7.13 0.48,-10.2 0.028,-101.91 0.547,-203.83 -0.238,-305.73 -0.316,-41.22 -9.695,-80.59 -33.328,-115.52 -18.219,-26.91 -42.844,-45.9 -72.317,-58.91 -32.41,-14.29 -66.656,-20.84 -101.785,-22.89 -17.918,-1.04 -35.906,-1.38 -53.843,-1.14 -38.332,0.5 -75.997,5.53 -112.289,18.55 -41.86,15.02 -75.352,40.3 -96.848,79.93 -11.695,21.57 -18.856,44.76 -21.641,69.07 -1.929,16.86 -3.386,33.86 -3.453,50.8 -0.324,91.5 -0.156,183.01 -0.148,274.51 0,2.83 -0.184,5.7 0.078,8.51 0.75,8.09 5.398,12.9 13.398,12.94 30.285,0.15 60.574,0.02 90.864,-0.05 0.867,0 1.738,-0.53 3.578,-1.12" /><path
         id="path30"
         style="fill:#ffffff;fill-opacity:1;fill-rule:nonzero;stroke:none"
         d="m 354.395,884.98 c 4.988,23.54 12.007,45.668 20.687,67.321 15.981,39.879 37.824,76.169 66.703,107.979 25.211,27.77 54.504,50.53 87.625,68.24 48.555,25.96 100.469,39.9 155.352,43.1 52.289,3.05 103.859,-0.95 154.25,-16 41.465,-12.37 78.457,-32.81 109.547,-63.07 26.066,-25.37 45.304,-55.56 59.601,-88.94 15.24,-35.579 24.25,-72.84 29.86,-111.008 0.35,-2.442 0.29,-4.942 0.43,-7.313 -7.38,-2 -673.192,-2.379 -684.055,-0.309" /><path
         id="path32"
         style="fill:#ffffff;fill-opacity:1;fill-rule:nonzero;stroke:none"
         d="m 913.828,1811.15 c 0,10.12 0,19.23 0,28.34 0,18.3 -0.152,36.61 0.078,54.9 0.082,6.9 0.571,13.87 1.703,20.66 2.161,12.92 9.746,22.18 22.172,25.85 10.157,2.99 20.899,5.4 31.418,5.53 46.371,0.59 92.761,0.49 139.141,0.06 9.64,-0.09 19.45,-1.86 28.85,-4.2 22.02,-5.5 34.08,-20.42 37.37,-42.58 2.38,-15.98 2.25,-31.92 -1.32,-47.79 -4.01,-17.84 -14.55,-29.55 -31.87,-35.46 -13.63,-4.65 -27.76,-5.77 -41.92,-5.82 -59.31,-0.21 -118.634,-0.09 -177.958,-0.07 -2.148,0 -4.297,0.32 -7.664,0.58" /><path
         id="path34"
         style="fill:#ffffff;fill-opacity:1;fill-rule:nonzero;stroke:none"
         d="m 914.324,2021.54 c 0,43.64 0,86.35 0,129.75 3.512,0.18 6.571,0.47 9.625,0.48 53.59,0.02 107.181,0.24 160.771,-0.18 10.25,-0.08 20.75,-1.68 30.67,-4.34 18.7,-5 29.86,-17.71 33.67,-36.88 3.17,-15.92 3.24,-31.78 -0.05,-47.67 -4.38,-21.18 -17.58,-33.77 -38.41,-37.95 -10.43,-2.09 -21.19,-3.46 -31.81,-3.53 -52.32,-0.35 -104.649,-0.16 -156.977,-0.14 -2.168,0 -4.336,0.26 -7.489,0.46" /><path
         id="path36"
         style="fill:#ffffff;fill-opacity:1;fill-rule:nonzero;stroke:none"
         d="m 2202.66,1999.86 c 0,50.96 0,100.72 0,151.16 2.66,0.27 5.06,0.73 7.47,0.73 58.33,0.04 116.65,0.11 174.97,-0.03 12.64,-0.02 25.07,-1.92 37.03,-6.3 14.61,-5.36 24.43,-15.48 28.97,-30.21 2.2,-7.15 3.53,-14.72 4.12,-22.19 1.31,-16.65 1.42,-33.34 -2.06,-49.83 -4.41,-20.83 -16.88,-34.63 -37.59,-39.09 -13.73,-2.97 -28.03,-4.49 -42.08,-4.63 -53.91,-0.51 -107.82,-0.21 -161.73,-0.18 -2.76,0 -5.52,0.34 -9.1,0.57" /></g></g></svg>